<svg width="29" height="29" viewBox="0 0 29 29" fill="none" xmlns="http://www.w3.org/2000/svg">
<g clip-path="url(#clip0_44_5)">
<path d="M23.1615 4.43918L4.40797 23.1609L5.77386 24.5292L24.5274 5.80739L23.1615 4.43918Z" fill="#3145FF"/>
<path d="M5.77387 4.43949L4.40799 5.80769L23.1616 24.5295L24.5274 23.1613L5.77387 4.43949Z" fill="#3145FF"/>
<path d="M17.4899 17.7154C14.8264 20.3786 13.551 24.0516 13.9912 27.792L15.911 27.5661C15.5404 24.4173 16.6144 21.325 18.8567 19.0823C21.1816 16.7575 24.4966 15.6786 27.7188 16.1955L28.0252 14.2866C24.1912 13.6712 20.252 14.9534 17.4899 17.7154Z" fill="#3145FF"/>
<path d="M14.0137 1.18707L12.0856 1.3263C12.2995 4.29302 11.204 7.21295 9.07474 9.34225C6.98096 11.4641 4.14315 12.5294 1.09005 12.3428L0.971786 14.2726C1.2431 14.2894 1.51214 14.2974 1.78022 14.2974C5.09171 14.2974 8.14572 13.0369 10.4464 10.7046C12.9682 8.18281 14.2683 4.7138 14.0137 1.18707Z" fill="#3145FF"/>
<path d="M14.5 0C6.50472 0 0 6.50472 0 14.5C0 22.4953 6.50472 29 14.5 29C22.4953 29 29 22.4953 29 14.5C29 6.50472 22.4953 0 14.5 0ZM14.5 27.0667C7.57059 27.0667 1.93331 21.4294 1.93331 14.5C1.93331 7.57059 7.57059 1.93331 14.5 1.93331C21.4294 1.93331 27.0667 7.57059 27.0667 14.5C27.0667 21.4294 21.4294 27.0667 14.5 27.0667Z" fill="#3145FF"/>
</g>
<defs>
<clipPath id="clip0_44_5">
<rect width="29" height="29" fill="white"/>
</clipPath>
</defs>
</svg>
